HIERARCHY
ROOT Pelvis
{
	OFFSET 0.000000 0.000000 0.000000
	CHANNELS 6 Xposition Yposition Zposition Xrotation Yrotation Zrotation
	JOINT LeftUpLeg_virtual
	{
		OFFSET 0.000000 0.000000 0.000000
		CHANNELS 3 Xrotation Yrotation Zrotation
		JOINT LeftUpLeg
		{
			OFFSET 18.735201 -5.666702 -4.541200
			CHANNELS 3 Xrotation Yrotation Zrotation
			JOINT LeftLeg
			{
				OFFSET -0.021200 -31.938179 0.493100
				CHANNELS 3 Xrotation Yrotation Zrotation
				JOINT LeftFoot
				{
					OFFSET 0.021200 -31.938179 -4.336299
					CHANNELS 3 Xrotation Yrotation Zrotation
					JOINT LeftToeBase
					{
						OFFSET 0.943001 -26.722000 15.023500
						CHANNELS 3 Xrotation Yrotation Zrotation
						End Site
						{
							OFFSET 0 0 0
						}
					}
				}
			}
		}
	}
	JOINT RightUpLeg_virtual
	{
		OFFSET 0.000000 0.000000 0.000000
		CHANNELS 3 Xrotation Yrotation Zrotation
		JOINT RightUpLeg
		{
			OFFSET -18.735201 -5.666702 -4.541200
			CHANNELS 3 Xrotation Yrotation Zrotation
			JOINT RightLeg
			{
				OFFSET 0.018946 -31.938133 0.493100
				CHANNELS 3 Xrotation Yrotation Zrotation
				JOINT RightFoot
				{
					OFFSET -0.018946 -31.938126 -4.336299
					CHANNELS 3 Xrotation Yrotation Zrotation
					JOINT RightToeBase
					{
						OFFSET -0.943001 -26.722004 15.023500
						CHANNELS 3 Xrotation Yrotation Zrotation
						End Site
						{
							OFFSET 0 0 0
						}
					}
				}
			}
		}
	}
	JOINT Hips_virtual
	{
		OFFSET 0.000000 0.000000 0.000000
		CHANNELS 3 Xrotation Yrotation Zrotation
		JOINT Hips
		{
			OFFSET -0.000000 -0.000000 -0.000000
			CHANNELS 3 Xrotation Yrotation Zrotation
			JOINT Spine
			{
				OFFSET 0.000000 10.199997 -0.299500
				CHANNELS 3 Xrotation Yrotation Zrotation
				JOINT Spine1
				{
					OFFSET 0.000000 11.900002 -1.516600
					CHANNELS 3 Xrotation Yrotation Zrotation
					JOINT Spine2
					{
						OFFSET 0.000000 13.600006 -2.842500
						CHANNELS 3 Xrotation Yrotation Zrotation
						JOINT Neck_virtual
						{
							OFFSET 0.000000 0.000000 0.000000
							CHANNELS 3 Xrotation Yrotation Zrotation
							JOINT Neck
							{
								OFFSET 0.000000 9.624100 -2.890100
								CHANNELS 3 Xrotation Yrotation Zrotation
								JOINT Head
								{
									OFFSET 0.000000 14.068802 -1.351900
									CHANNELS 3 Xrotation Yrotation Zrotation
									End Site
									{
										OFFSET 0 0 0
									}
								}
							}
						}
						JOINT LeftShoulder_virtual
						{
							OFFSET 0.000000 0.000000 0.000000
							CHANNELS 3 Xrotation Yrotation Zrotation
							JOINT LeftShoulder
							{
								OFFSET 15.263000 10.923401 -0.547700
								CHANNELS 3 Xrotation Yrotation Zrotation
								JOINT LeftArm
								{
									OFFSET 25.438599 -2.830597 -13.032500
									CHANNELS 3 Xrotation Yrotation Zrotation
									JOINT LeftForeArm
									{
										OFFSET 29.960503 0.000000 0.000000
										CHANNELS 3 Xrotation Yrotation Zrotation
										JOINT LeftHand
										{
											OFFSET 27.849251 0.000000 0.000000
											CHANNELS 3 Xrotation Yrotation Zrotation
											End Site
											{
												OFFSET 0 0 0
											}
										}
									}
								}
							}
						}
						JOINT RightShoulder_virtual
						{
							OFFSET 0.000000 0.000000 0.000000
							CHANNELS 3 Xrotation Yrotation Zrotation
							JOINT RightShoulder
							{
								OFFSET -15.263000 10.923401 -0.547700
								CHANNELS 3 Xrotation Yrotation Zrotation
								JOINT RightArm
								{
									OFFSET -25.438599 -2.830597 -13.032500
									CHANNELS 3 Xrotation Yrotation Zrotation
									JOINT RightForeArm
									{
										OFFSET -29.960503 0.000000 0.000000
										CHANNELS 3 Xrotation Yrotation Zrotation
										JOINT RightHand
										{
											OFFSET -27.849251 0.000000 0.000000
											CHANNELS 3 Xrotation Yrotation Zrotation
											End Site
											{
												OFFSET 0 0 0
											}
										}
									}
								}
							}
						}
					}
				}
			}
		}
	}
}
MOTION
Frames: 4
Frame Time: 0.03333333
-4.587440 74.611404 1.366886 0.000000 0.000000 0.000000 -9.475151 -75.444330 -6.566271 -42.648306 10.728901 56.530754 43.027327 -3.554950 -6.109000 4.849748 -2.474980 -25.696375 0.000000 0.000000 0.000000 -11.264657 -74.511695 -9.155007 -39.676350 8.824377 -29.979394 64.756354 13.537479 -6.758961 -22.635592 -5.089097 31.300220 0.000000 0.000000 0.000000 -9.376029 -74.624338 -6.594397 0.756996 0.565450 -1.148206 3.850243 -1.280934 -0.147783 4.073768 -1.027590 -1.422796 0.000000 0.000000 0.000000 5.548673 -0.504951 -1.896994 -0.214688 4.605089 1.061786 0.000000 0.000000 0.000000 3.991631 -0.344293 -2.105343 0.167161 -6.759863 -15.257604 -33.208612 -15.517066 -2.516818 -5.915958 -36.577767 -5.882011 0.000000 0.000000 0.000000 4.824548 -0.154618 -2.457270 1.984996 13.354254 7.624783 41.665233 58.321005 -19.326715 88.260019 87.934929 -94.079504 0.000000 0.000000 0.000000 
-4.767129 74.811012 1.201180 0.000000 0.000000 0.000000 -10.781626 -75.762630 -7.836839 -42.475113 11.719661 56.752988 44.372218 -3.147183 -6.078017 5.811137 -2.550595 -24.684671 0.000000 0.000000 0.000000 -11.666280 -74.841251 -9.457408 -39.409519 8.805433 -29.687390 64.302140 13.131760 -6.548426 -23.940247 -5.782691 30.734130 0.000000 0.000000 0.000000 -10.648774 -74.996051 -7.789304 0.683292 0.459718 -1.070371 3.722905 -1.261023 -0.292355 4.071767 -0.985972 -1.503148 0.000000 0.000000 0.000000 5.210566 -0.494219 -1.947287 -0.217637 4.527687 1.188804 0.000000 0.000000 0.000000 4.139457 -0.298861 -2.134224 0.410339 -6.892585 -15.945956 -33.636841 -14.903423 -4.734613 -4.861896 -34.283049 -5.243766 0.000000 0.000000 0.000000 4.928119 -0.183009 -2.605286 2.105311 13.295930 7.389016 41.993769 59.020348 -20.300041 99.860719 87.778948 -105.446291 0.000000 0.000000 0.000000 
-4.934652 75.154816 1.157631 0.000000 0.000000 0.000000 -13.925552 -76.147074 -10.726817 -41.542464 13.229431 56.518251 45.089381 -2.626559 -5.875916 6.805502 -2.555755 -23.867816 0.000000 0.000000 0.000000 -13.458597 -75.255987 -11.033827 -39.528610 8.211796 -29.767809 63.684636 12.558182 -5.842459 -23.425537 -5.906657 30.775842 0.000000 0.000000 0.000000 -12.774051 -75.124896 -9.702927 0.555442 0.344237 -1.059546 3.514814 -1.012402 -0.373006 4.116243 -0.833693 -1.515813 0.000000 0.000000 0.000000 4.768939 -0.404241 -1.934897 -0.333519 4.511369 1.254939 0.000000 0.000000 0.000000 4.413556 -0.162957 -2.046937 0.368902 -7.148138 -16.735505 -33.218225 -14.305963 -8.339154 -3.605680 -32.864084 -4.304216 0.000000 0.000000 0.000000 5.027579 -0.097750 -2.649900 2.131742 12.919064 7.418988 41.251030 59.151166 -19.680258 79.166141 87.576180 -84.279111 0.000000 0.000000 0.000000 
-4.972811 75.731743 1.203541 0.000000 0.000000 0.000000 -17.573976 -76.256904 -14.003076 -40.190322 14.803448 55.962766 44.905792 -1.961196 -5.668396 7.569026 -2.483421 -23.498472 0.000000 0.000000 0.000000 -16.268870 -75.392448 -13.508144 -39.856647 7.402189 -30.087451 62.842453 11.882569 -5.071544 -20.355323 -5.125100 31.367330 0.000000 0.000000 0.000000 -14.853870 -74.826935 -11.477858 0.396700 0.050463 -1.112284 3.361660 -0.591193 -0.436817 4.264671 -0.604529 -1.463894 0.000000 0.000000 0.000000 4.386498 -0.234143 -1.880169 -0.533574 4.530724 1.254681 0.000000 0.000000 0.000000 4.828153 0.054750 -1.858732 0.072411 -7.678984 -17.592230 -31.123079 -14.381665 -12.551705 -2.250978 -33.985826 -3.375486 0.000000 0.000000 0.000000 5.158814 0.106669 -2.586177 1.982185 12.201078 7.715381 38.855536 58.677028 -16.673641 39.131571 85.881009 -43.609870 0.000000 0.000000 0.000000 
